<svg width="716" height="88" viewBox="0 0 716 88" fill="none" xmlns="http://www.w3.org/2000/svg">
<path d="M24.7376 1.16009L46.6575 54.5717H47.6519L69.5304 1.16009H94.3094V86.022H74.8343V33.2734H74.1298L53.4116 85.5247H40.8564L20.1381 33.0247H19.4337V86.022H-8.9407e-07V1.16009H24.7376ZM107.109 1.16009H165.908V17.4861H127.082V35.428H162.841V51.7126H127.082V69.696H165.908V86.022H107.109V1.16009ZM251.3 26.4363C251.024 23.2872 249.753 20.8562 247.488 19.1435C245.25 17.4308 242.115 16.5745 238.082 16.5745C235.43 16.5745 233.178 16.9336 231.327 17.6518C229.504 18.3424 228.123 19.3093 227.184 20.5524C226.272 21.7955 225.803 23.2319 225.775 24.8617C225.692 27.3479 226.728 29.3231 228.883 30.7872C231.065 32.2513 234.242 33.4529 238.413 34.3921L245.747 36.091C254.118 37.9419 260.513 40.9667 264.932 45.1656C269.38 49.3369 271.618 54.7651 271.645 61.4501C271.618 66.7816 270.264 71.3811 267.584 75.2485C264.932 79.0883 261.093 82.0303 256.065 84.0745C251.037 86.1187 245.043 87.1408 238.082 87.1408C230.927 87.1408 224.739 86.0634 219.518 83.9087C214.297 81.754 210.25 78.5082 207.377 74.1711C204.504 69.8341 203.013 64.475 202.902 58.0938H222.087C222.336 62.1269 223.855 65.2071 226.645 67.3341C229.435 69.4612 233.164 70.5247 237.833 70.5247C240.595 70.5247 242.985 70.1518 245.002 69.406C247.046 68.6325 248.606 67.5551 249.684 66.1739C250.789 64.7927 251.341 63.2043 251.341 61.4087C251.341 59.7789 250.844 58.3839 249.85 57.2236C248.855 56.0358 247.363 55.0137 245.374 54.1573C243.385 53.301 240.789 52.4999 237.584 51.754L228.676 49.6822C212.93 46.0082 205.071 38.1905 205.098 26.2292C205.071 21.0634 206.466 16.5054 209.283 12.5551C212.101 8.57722 216.024 5.49711 221.051 3.31478C226.079 1.10484 231.783 -0.000132561 238.164 -0.000132561C244.601 -0.000132561 250.25 1.10484 255.112 3.31478C259.974 5.52473 263.731 8.63247 266.383 12.638C269.062 16.6159 270.43 21.2153 270.485 26.4363H251.3ZM301.926 86.022H281.953V1.16009H301.926V86.022ZM314.766 86.022V1.16009H345.884C354.448 1.16009 361.865 2.85899 368.136 6.25677C374.434 9.62694 379.268 14.5026 382.639 20.8838C386.009 27.2374 387.694 34.7927 387.694 43.5496C387.694 52.3065 386.009 59.8756 382.639 66.2568C379.268 72.638 374.434 77.5275 368.136 80.9253C361.865 84.3231 354.448 86.022 345.884 86.022H314.766ZM345.097 68.9501C350.097 68.9501 354.255 68.1076 357.569 66.4225C360.884 64.7098 363.398 61.9888 365.111 58.2595C366.824 54.5026 367.68 49.5993 367.68 43.5496C367.68 37.4999 366.81 32.6104 365.069 28.8811C363.357 25.1518 360.829 22.4446 357.487 20.7595C354.144 19.0745 349.931 18.2319 344.848 18.2319H334.738V68.9501H345.097ZM399.492 1.16009H458.291V17.4861H419.465V35.428H455.224V51.7126H419.465V69.696H458.291V86.022H399.492V1.16009ZM550.617 43.591C550.617 52.6518 548.849 60.4695 545.314 67.0441C541.805 73.6187 536.999 78.6187 530.894 82.0441C524.789 85.4695 517.91 87.1822 510.258 87.1822C502.579 87.1822 495.687 85.4695 489.582 82.0441C483.477 78.591 478.67 73.5772 475.162 67.0026C471.653 60.428 469.899 52.6242 469.899 43.591C469.899 34.5026 471.64 26.685 475.12 20.138C478.628 13.5634 483.435 8.56341 489.54 5.13799C495.673 1.71258 502.579 -0.000132561 510.258 -0.000132561C517.91 -0.000132561 524.789 1.71258 530.894 5.13799C536.999 8.56341 541.805 13.5634 545.314 20.138C548.849 26.7126 550.617 34.5303 550.617 43.591ZM490.327 43.591C490.327 49.1435 491.115 53.8673 492.689 57.7623C494.291 61.6573 496.584 64.6131 499.568 66.6297C502.551 68.6187 506.115 69.6131 510.258 69.6131C514.402 69.6131 517.966 68.6187 520.949 66.6297C523.932 64.6131 526.225 61.6573 527.827 57.7623C529.43 53.8673 530.231 49.1435 530.231 43.591C530.231 38.0385 529.43 33.3148 527.827 29.4198C526.225 25.5247 523.932 22.5827 520.949 20.5938C517.966 18.5772 514.402 17.5689 510.258 17.5689C506.115 17.5689 502.551 18.5772 499.568 20.5938C496.584 22.5827 494.291 25.5247 492.689 29.4198C491.115 33.3148 490.327 38.0385 490.327 43.591ZM633.902 1.16009V55.9391C633.902 62.1822 632.41 67.6656 629.427 72.3894C626.444 77.0855 622.245 80.7181 616.83 83.2872C611.444 85.8562 605.214 87.1408 598.142 87.1408C591.043 87.1408 584.786 85.8562 579.372 83.2872C573.985 80.7181 569.8 77.0855 566.817 72.3894C563.861 67.6656 562.383 62.1822 562.383 55.9391V1.16009H582.355V54.2402C582.355 57.2236 583.018 59.8894 584.344 62.2374C585.67 64.5579 587.521 66.3811 589.897 67.7071C592.3 69.033 595.049 69.696 598.142 69.696C601.236 69.696 603.971 69.033 606.347 67.7071C608.75 66.3811 610.601 64.5579 611.899 62.2374C613.225 59.8894 613.888 57.2236 613.888 54.2402V1.16009H633.902ZM643.857 1.16009H715.211V17.4861H689.437V86.022H669.672V17.4861H643.857V1.16009Z" fill="white"/>
</svg>
