<svg width="1784" height="227" viewBox="0 0 1784 227" fill="none" xmlns="http://www.w3.org/2000/svg">
<path d="M-5.36442e-07 3.01658H56.453L117.754 152.552H120.34L181.641 3.01658H238.202V223.657H193.707V79.1851H191.876L134.345 222.688H103.749L46.2182 78.6464H44.3867V223.657H-5.36442e-07V3.01658ZM269.198 223.657V3.01658H417.225V40.9392H314.985V94.3757H409.576V132.191H314.985V185.735H417.656V223.657H269.198ZM631.936 66.1492C630.212 48.5884 616.314 38.3536 593.906 38.3536C570.743 38.3536 557.814 49.0194 557.814 63.5635C557.491 79.7238 573.975 86.8343 593.044 91.2514L612.975 96.0995C650.682 104.611 678.801 123.895 679.016 160.74C678.801 201.033 647.342 226.782 593.582 226.782C540.361 226.782 506.317 202.111 505.024 154.923H549.519C551.027 177.116 568.696 188.213 593.044 188.213C617.069 188.213 632.582 177.116 632.69 160.525C632.582 145.55 619.008 138.547 594.983 132.622L570.85 126.696C533.682 117.646 510.734 99.116 510.842 66.5801C510.627 26.6105 546.071 -2.86102e-06 594.229 -2.86102e-06C643.14 -2.86102e-06 675.353 27.0414 676 66.1492H631.936ZM748.421 3.01658V223.657H702.634V3.01658H748.421ZM857.358 223.657H779.573V3.01658H858.112C924.584 3.01658 965.201 44.3867 965.201 113.122C965.201 182.072 924.584 223.657 857.358 223.657ZM825.361 184.334H855.419C897.328 184.334 919.413 162.572 919.413 113.122C919.413 63.9945 897.328 42.3398 855.634 42.3398H825.361V184.334ZM991.794 223.657V3.01658H1139.82V40.9392H1037.58V94.3757H1132.17V132.191H1037.58V185.735H1140.25V223.657H991.794ZM1371.18 113.337C1371.18 185.304 1326.57 226.674 1268.07 226.674C1209.36 226.674 1165.08 185.088 1165.08 113.337C1165.08 41.3702 1209.36 -2.86102e-06 1268.07 -2.86102e-06C1326.57 -2.86102e-06 1371.18 41.3702 1371.18 113.337ZM1211.51 113.337C1211.51 160.417 1234.03 186.058 1268.07 186.058C1302.23 186.058 1324.74 160.417 1324.74 113.337C1324.74 66.2569 1302.23 40.616 1268.07 40.616C1234.03 40.616 1211.51 66.2569 1211.51 113.337ZM1534.45 3.01658H1580.35V146.304C1580.35 194.569 1543.72 226.782 1489.1 226.782C1434.15 226.782 1397.95 194.569 1397.95 146.304V3.01658H1443.74V142.425C1443.74 168.066 1461.73 186.381 1489.1 186.381C1516.57 186.381 1534.45 168.066 1534.45 142.425V3.01658ZM1602.67 40.9392V3.01658H1783.34V40.9392H1715.79V223.657H1670.43V40.9392H1602.67Z" fill="#5C6266"/>
</svg>
